<?xml version="1.0" encoding="iso-8859-1"?>
<!-- Uploaded to: SVG Repo, www.svgrepo.com, Generator: SVG Repo Mixer Tools -->
<svg fill="#000000" height="800px" width="800px" version="1.1" id="Layer_1" xmlns="http://www.w3.org/2000/svg" xmlns:xlink="http://www.w3.org/1999/xlink" 
	 viewBox="0 0 512 512" xml:space="preserve">
<g>
	<g>
		<path fill="#506427" d="M480.704,390.328c-7.697-7.551-16.172-14.018-25.239-19.335c20.546-34.862,31.513-74.491,31.513-115.653V109.851H468.25
			c-61.897,0-120.083,24.185-163.839,68.099c-11.234,11.275-21.146,23.502-29.682,36.487v-86.118
			c0-13.237,7.456-24.761,18.387-30.604c9.987,9.098,23.255,14.651,37.795,14.651c30.98,0,56.184-25.204,56.184-56.183
			S361.891,0,330.911,0c-30.98,0-56.183,25.204-56.183,56.183c0,2.907,0.222,5.763,0.651,8.552
			c-7.299,3.923-13.851,9.059-19.378,15.147c-5.526-6.088-12.079-11.224-19.378-15.147c0.428-2.788,0.65-5.645,0.65-8.552
			C237.272,25.204,212.068,0,181.089,0s-56.183,25.204-56.183,56.183s25.204,56.183,56.183,56.183
			c14.542,0,27.808-5.553,37.797-14.65c10.931,5.843,18.387,17.367,18.387,30.604v86.118c-8.536-12.983-18.448-25.21-29.682-36.487
			c-43.756-43.914-101.942-68.099-163.839-68.099H25.024V255.34c0,41.16,10.964,80.783,31.508,115.644
			c-9.066,5.321-17.537,11.792-25.234,19.343l-13.369,13.116l68.856,70.189c25.068,25.552,58.413,38.368,91.857,38.367
			c27.195-0.003,54.451-8.487,77.358-25.485c22.909,17,50.161,25.485,77.358,25.485c33.439-0.001,66.792-12.819,91.857-38.367
			l68.856-70.189L480.704,390.328z M330.911,37.456c10.327,0,18.728,8.401,18.728,18.728s-8.401,18.728-18.728,18.728
			c-10.326,0-18.728-8.401-18.728-18.728S320.585,37.456,330.911,37.456z M181.089,74.911c-10.326,0-18.728-8.401-18.728-18.728
			s8.401-18.728,18.728-18.728c10.327,0,18.728,8.401,18.728,18.728S191.415,74.911,181.089,74.911z M177.846,474.434
			c-24.573-0.198-47.418-9.8-64.324-27.033l-41.29-42.089c14.925-9.602,32.372-14.654,50.539-14.442
			c24.392,0.278,47.149,10.004,64.078,27.386l41.222,42.02C213.243,469.638,195.947,474.644,177.846,474.434z M237.272,340.869
			v75.303l-23.618-24.075c-23.924-24.551-56.047-38.287-90.457-38.678c-10.719-0.131-21.246,1.04-31.408,3.437
			c-19.089-30.323-29.31-65.219-29.31-101.516V148.196c44.794,4.275,86.352,23.849,118.578,56.192
			c36.437,36.569,56.401,84.999,56.215,136.372V340.869z M398.479,447.401c-16.906,17.235-39.749,26.835-64.324,27.033
			c-18.12,0.181-35.397-4.798-50.226-14.157l41.175-41.973l0.047-0.047c16.929-17.382,39.685-27.108,64.078-27.386
			c18.178-0.232,35.614,4.838,50.539,14.442L398.479,447.401z M449.521,255.339c0,36.303-10.227,71.207-29.322,101.534
			c-9.679-2.282-19.689-3.463-29.881-3.463c-0.504,0-1.013,0.003-1.516,0.009c-34.409,0.391-66.532,14.127-90.457,38.678
			l-23.618,24.075v-75.303v-0.109c-0.186-51.372,19.779-99.803,56.215-136.372c32.227-32.342,73.784-51.916,118.578-56.191V255.339z
			"/>
	</g>
</g>
</svg>