<?xml version="1.0" encoding="iso-8859-1"?>
<!-- Uploaded to: SVG Repo, www.svgrepo.com, Generator: SVG Repo Mixer Tools -->
<svg fill="#000000" height="800px" width="800px" version="1.1" id="Layer_1" xmlns="http://www.w3.org/2000/svg" xmlns:xlink="http://www.w3.org/1999/xlink" 
	 viewBox="0 0 512.001 512.001" xml:space="preserve">
<g>
	<g>
		<path  fill="#506427" d="M429.767,215.86l-17.713-19.683c4.368-2.274,8.039-4.391,10.785-6.281c16.262-11.191,27.191-28.047,30.776-47.46
			c3.585-19.412-0.605-39.059-11.799-55.321c-11.031-16.027-27.861-26.586-47.393-29.734c-5.326-0.857-10.788-1.155-16.289-0.911
			c-0.497-2.072-1.065-4.135-1.744-6.182c-6.213-18.738-19.349-33.934-36.991-42.791c-17.389-8.73-37.227-9.875-55.856-3.223
			c-9.949,3.552-19.321,9.234-27.542,16.586c-8.221-7.352-17.593-13.033-27.542-16.586c-18.631-6.652-38.47-5.507-55.855,3.223
			c-17.643,8.857-30.78,24.054-36.992,42.791c-0.679,2.046-1.249,4.109-1.744,6.181c-5.501-0.242-10.963,0.054-16.289,0.912
			c-19.532,3.147-36.364,13.707-47.394,29.735c-11.191,16.261-15.381,35.907-11.797,55.32c3.585,19.413,14.514,36.268,30.775,47.459
			c2.747,1.891,6.418,4.007,10.787,6.282L82.236,215.86c-34.167,37.962-35.995,94.611-4.347,134.698l96.068,121.686
			c19.949,25.267,49.853,39.758,82.044,39.758s62.097-14.491,82.044-39.758l96.068-121.686
			C465.761,310.47,463.933,253.822,429.767,215.86z M372.287,106.702c2.172-4.328,3.895-8.801,5.173-13.363
			c1.476-0.135,2.951-0.23,4.425-0.23c11.34,0,22.401,4.202,29.705,14.81c5.634,8.188,7.744,18.08,5.938,27.853
			c-1.804,9.774-7.307,18.261-15.495,23.896c-3.577,2.462-9.948,5.733-18.204,9.509c-11.945-9.455-24.862-17.533-38.499-24.103
			C357.724,129.408,367.936,115.367,372.287,106.702z M189.067,40.291c5.01-2.515,10.058-3.623,14.98-3.623
			c14.885,0,28.628,10.135,36.724,22.183L256,81.513l15.228-22.662c10.774-16.031,31.55-28.681,51.705-18.56h0.001
			c18.335,9.206,25.764,31.613,16.559,49.949c-3.831,7.629-15.621,23.2-30.426,41.385c-17.165-4.591-34.995-6.984-53.067-6.984
			c-18.072,0-35.902,2.394-53.068,6.984c-14.805-18.182-26.593-33.753-30.425-41.383C163.302,71.904,170.731,49.497,189.067,40.291z
			 M94.473,135.773c-1.804-9.773,0.305-19.665,5.938-27.853c7.305-10.612,18.366-14.811,29.707-14.811
			c1.473,0,2.949,0.094,4.423,0.231c1.278,4.561,2.999,9.037,5.173,13.364c4.351,8.665,14.563,22.706,26.957,38.372
			c-13.636,6.568-26.554,14.646-38.498,24.103c-8.256-3.778-14.628-7.049-18.207-9.511
			C101.781,154.034,96.277,145.547,94.473,135.773z M405.311,327.819l-96.068,121.686c-12.945,16.398-32.35,25.802-53.242,25.802
			s-40.297-9.404-53.242-25.802l-96.068-121.686c-20.538-26.014-19.352-62.775,2.821-87.413l20.774-23.082
			c32.024-35.582,77.846-55.988,125.715-55.988c47.871,0,93.693,20.407,125.716,55.988l20.773,23.082
			C424.663,265.044,425.849,301.805,405.311,327.819z"/>
	</g>
</g>
<g>
	<g>
		<circle fill="#506427" cx="176.493" cy="305.769" r="18.348"/>
	</g>
</g>
<g>
	<g>
		<circle fill="#506427" cx="335.505" cy="305.769" r="18.348"/>
	</g>
</g>
<g>
	<g>
		<circle fill="#506427" cx="255.999" cy="244.611" r="18.348"/>
	</g>
</g>
<g>
	<g>
		<circle fill="#506427" cx="255.999" cy="366.927" r="18.348"/>
	</g>
</g>
</svg>