<?xml version="1.0" encoding="iso-8859-1"?>
<!-- Uploaded to: SVG Repo, www.svgrepo.com, Generator: SVG Repo Mixer Tools -->
<svg fill="#000000" height="800px" width="800px" version="1.1" id="Layer_1" xmlns="http://www.w3.org/2000/svg" xmlns:xlink="http://www.w3.org/1999/xlink" 
	 viewBox="0 0 512.002 512.002" xml:space="preserve">
<g>
	<g>
		<path fill="#506427" d="M500.064,243.833c-0.859-0.876-21.347-21.69-47.883-42.797c-14.232-11.32-27.31-20.471-39.325-27.499
			c3.007-7.927,6.262-17.501,9.775-29.121c7.324-24.226,12.265-45.808,12.473-46.715l6.142-26.944l-26.944,6.142
			c-0.907,0.207-22.49,5.148-46.715,12.473c-11.619,3.513-21.193,6.769-29.121,9.775c-7.029-12.015-16.179-25.093-27.499-39.325
			c-21.108-26.536-41.921-47.023-42.797-47.883L256.001,0.001l-12.168,11.937c-0.876,0.859-21.69,21.347-42.798,47.883
			c-11.32,14.232-20.469,27.31-27.499,39.325c-7.927-3.007-17.501-6.262-29.12-9.775c-24.227-7.324-45.808-12.265-46.717-12.473
			l-26.944-6.142l6.142,26.944c0.207,0.907,5.148,22.49,12.473,46.715c3.513,11.619,6.769,21.193,9.775,29.121
			c-12.016,7.029-25.095,16.179-39.327,27.499c-26.536,21.108-47.023,41.921-47.882,42.797L0,256.001l11.937,12.168
			c0.859,0.876,21.346,21.69,47.882,42.797c14.232,11.32,27.31,20.471,39.327,27.499c-3.007,7.927-6.263,17.502-9.775,29.121
			c-7.325,24.226-12.265,45.808-12.473,46.715l-6.142,26.944l26.944-6.143c0.907-0.207,22.49-5.147,46.717-12.473
			c11.619-3.513,21.192-6.769,29.12-9.775c7.029,12.015,16.178,25.093,27.499,39.325c21.108,26.535,41.922,47.023,42.798,47.883
			l12.168,11.937l12.168-11.937c0.876-0.859,21.69-21.347,42.797-47.883c11.32-14.232,20.471-27.31,27.499-39.325
			c7.927,3.007,17.501,6.262,29.121,9.775c24.226,7.324,45.808,12.265,46.715,12.473l26.944,6.143l-6.143-26.944
			c-0.207-0.907-5.147-22.49-12.473-46.715c-3.513-11.618-6.769-21.193-9.775-29.121c12.015-7.029,25.093-16.179,39.325-27.499
			c26.535-21.108,47.023-41.921,47.883-42.797l11.937-12.168L500.064,243.833z M394.275,117.73
			c-4.391,16.042-8.935,30.147-13.141,41.412c-7.279-2.166-14.049-3.251-20.335-3.251c-1.612,0-3.213,0.042-4.806,0.118
			c0.075-1.594,0.118-3.196,0.118-4.806c0-6.285-1.085-13.054-3.25-20.329C364.126,126.668,378.229,122.122,394.275,117.73z
			 M256.001,49.211c30.339,32.333,65.361,78.712,65.361,101.991c0,4.591-0.481,9.072-1.386,13.397
			c-12.274,5.504-23.242,13.412-32.312,23.118c-4.537-2.113-9.319-3.782-14.289-4.96V140.17h-34.749v42.587
			c-4.971,1.179-9.751,2.847-14.289,4.96c-9.068-9.707-20.037-17.614-32.312-23.118c-0.905-4.325-1.386-8.807-1.386-13.397
			C190.638,126.837,226.858,80.242,256.001,49.211z M296.541,256.001c0,22.354-18.186,40.54-40.54,40.54
			c-22.354,0-40.541-18.186-40.541-40.54c0-22.354,18.186-40.541,40.541-40.541C278.355,215.461,296.541,233.647,296.541,256.001z
			 M159.141,130.868c-2.166,7.279-3.251,14.049-3.251,20.335c0,1.611,0.042,3.213,0.118,4.806c-1.593-0.075-3.195-0.118-4.806-0.118
			c-6.284,0-13.054,1.085-20.331,3.25c-4.206-11.264-8.75-25.369-13.142-41.414C133.773,122.117,147.877,126.662,159.141,130.868z
			 M117.725,394.272c4.391-16.044,8.936-30.148,13.141-41.412c7.279,2.166,14.049,3.251,20.335,3.251
			c1.611,0,3.213-0.042,4.806-0.118c-0.075,1.593-0.118,3.196-0.118,4.806c0,6.285,1.085,13.054,3.25,20.329
			C147.874,385.335,133.77,389.88,117.725,394.272z M164.599,319.975c-4.326,0.905-8.807,1.385-13.397,1.385
			c-24.346,0-70.886-36.163-101.918-65.293c8.153-7.607,19.626-17.877,32.434-28.049c42.479-33.737,62.743-37.38,69.483-37.38
			c17.798,0,33.949,7.159,45.748,18.738c-6.703,8.472-11.621,18.409-14.193,29.249h-42.587v34.749h42.587
			c1.179,4.97,2.847,9.752,4.96,14.289C178.01,296.732,170.102,307.701,164.599,319.975z M255.999,462.79
			c-30.339-32.333-65.361-78.712-65.361-101.991c0-17.797,7.159-33.95,18.739-45.748c8.471,6.703,18.408,11.621,29.248,14.193
			v42.587h34.749v-42.587c4.97-1.179,9.752-2.847,14.289-4.96c9.068,9.707,20.037,17.614,32.312,23.118
			c0.906,4.325,1.386,8.807,1.386,13.397C321.362,385.164,285.142,431.759,255.999,462.79z M352.86,381.135
			c2.166-7.279,3.251-14.049,3.251-20.335c0-1.611-0.042-3.212-0.118-4.806c1.593,0.075,3.195,0.118,4.806,0.118
			c6.285,0,13.054-1.085,20.329-3.25c4.206,11.263,8.751,25.368,13.143,41.414C378.228,389.884,364.124,385.34,352.86,381.135z
			 M360.799,321.362c-17.798,0-33.95-7.159-45.748-18.739c6.703-8.471,11.621-18.408,14.193-29.248h42.587v-34.749h-42.587
			c-2.571-10.841-7.49-20.778-14.193-29.248c11.8-11.58,27.95-18.739,45.748-18.739c24.365,0,70.96,36.22,101.991,65.364
			C430.457,286.341,384.077,321.362,360.799,321.362z"/>
	</g>
</g>
</svg>