<?xml version="1.0" encoding="iso-8859-1"?>
<!-- Uploaded to: SVG Repo, www.svgrepo.com, Generator: SVG Repo Mixer Tools -->
<svg fill="#000000" height="800px" width="800px" version="1.1" id="Layer_1" xmlns="http://www.w3.org/2000/svg" xmlns:xlink="http://www.w3.org/1999/xlink" 
	 viewBox="0 0 512 512" xml:space="preserve">
<g>
	<g>
		<circle cx="256" cy="142.884" r="17.86" fill="#506427"/>
	</g>
</g>
<g>
	<g>
		<circle cx="158.041" cy="199.442" r="17.86" fill="#506427"/>
	</g>
</g>
<g>
	<g>
		<circle cx="158.041" cy="312.558" r="17.86" fill="#506427"/>
	</g>
</g>
<g>
	<g>
		<circle cx="256" cy="369.116" r="17.86" fill="#506427"/>
	</g>
</g>
<g>
	<g>
		<path fill="#506427" d="M446.306,256c42.79-27.174,56.977-83.693,31.396-128c-12.721-22.035-33.263-37.796-57.839-44.382
			c-23.262-6.231-47.498-3.524-68.71,7.568C349.011,40.544,307.16,0,256,0s-93.011,40.544-95.152,91.186
			c-21.211-11.094-45.449-13.803-68.71-7.568C67.56,90.204,47.019,105.965,34.298,128C8.717,172.307,22.904,228.826,65.694,256
			c-42.79,27.174-56.977,83.693-31.396,128c12.721,22.035,33.263,37.796,57.839,44.382c8.207,2.199,16.535,3.286,24.809,3.286
			c15.179,0,30.172-3.671,43.901-10.85C162.991,471.458,204.842,512,256,512s93.009-40.542,95.152-91.181
			c13.729,7.179,28.721,10.85,43.901,10.85c8.273,0,16.604-1.087,24.809-3.286c24.577-6.586,45.118-22.348,57.839-44.382
			C503.283,339.693,489.096,283.174,446.306,256z M365.442,124.068c13.772-7.951,29.817-10.06,45.176-5.948
			c15.36,4.116,28.199,13.967,36.15,27.74c7.95,13.773,10.064,29.816,5.948,45.176c-4.116,15.36-13.967,28.199-27.739,36.15
			c-5.705,3.293-26.055,10.969-91.656,11.103c-0.667,0.001-1.33,0-1.993-0.001c-3.534-15.034-11.456-28.385-22.346-38.63
			c0.304-0.526,0.6-1.049,0.906-1.576C342.873,141.185,359.726,127.369,365.442,124.068z M256,35.721
			c32.828,0,59.535,26.707,59.535,59.535c0,6.098-3.042,24.962-29.41,72.837c-2.309,3.825-4.687,7.841-7.141,12.074
			c-0.32,0.552-0.636,1.101-0.953,1.651c-6.987-2.08-14.378-3.214-22.031-3.214s-15.044,1.134-22.031,3.212
			c-0.318-0.55-0.632-1.099-0.953-1.651c-2.453-4.231-4.829-8.244-7.137-12.067c-26.369-47.874-29.414-66.742-29.414-72.843
			C196.465,62.428,223.172,35.721,256,35.721z M297.674,256c0,22.979-18.695,41.674-41.674,41.674S214.326,278.979,214.326,256
			s18.695-41.674,41.674-41.674S297.674,233.021,297.674,256z M59.284,191.037c-4.115-15.36-2.003-31.405,5.949-45.176
			s20.79-23.623,36.15-27.74c15.361-4.116,31.405-2.003,45.176,5.948c5.705,3.295,22.527,17.081,55.444,73.824
			c0.343,0.591,0.675,1.176,1.016,1.766c-10.818,10.178-18.707,23.42-22.276,38.331c-0.636-0.001-1.269-0.002-1.909-0.002
			c-4.894,0.01-9.564,0.061-14.031,0.146c-54.642-1.103-72.499-7.9-77.78-10.947C73.251,219.235,63.4,206.397,59.284,191.037z
			 M146.558,387.932c-13.772,7.953-29.815,10.061-45.176,5.948c-15.36-4.116-28.199-13.967-36.15-27.74
			c-7.95-13.773-10.064-29.816-5.948-45.176c4.116-15.36,13.967-28.199,27.738-36.15c5.705-3.293,26.055-10.969,91.656-11.103
			c0.569-0.001,1.134-0.001,1.699-0.001c0.099,0,0.195,0.001,0.294,0.001c3.51,14.93,11.349,28.202,22.124,38.42
			c-0.326,0.564-0.651,1.125-0.978,1.693c-2.436,4.238-4.723,8.3-6.879,12.208C166.662,372.81,151.843,384.88,146.558,387.932z
			 M256,476.279c-32.828,0-59.535-26.707-59.535-59.535c0-6.587,3.528-28.049,36.212-84.928c0.332-0.577,0.663-1.143,0.995-1.717
			c7.074,2.134,14.567,3.296,22.328,3.296c7.654,0,15.044-1.134,22.031-3.212c0.318,0.55,0.632,1.099,0.953,1.651
			c2.453,4.231,4.829,8.244,7.137,12.067c26.369,47.874,29.414,66.742,29.414,72.843C315.535,449.572,288.828,476.279,256,476.279z
			 M446.768,366.14c-7.951,13.772-20.79,23.623-36.151,27.74c-15.36,4.116-31.405,2.003-45.176-5.948
			c-5.705-3.295-22.527-17.081-55.444-73.824c-0.343-0.591-0.675-1.175-1.016-1.766c10.816-10.178,18.706-23.417,22.276-38.329
			c0.108,0,0.217,0.001,0.325,0.001c0.525,0,1.057,0,1.584-0.001c4.894-0.01,9.564-0.061,14.031-0.146
			c54.642,1.103,72.499,7.9,77.78,10.947c13.772,7.951,23.622,20.79,27.738,36.15C456.831,336.323,454.719,352.368,446.768,366.14z"
			/>
	</g>
</g>
<g>
	<g>
		<circle cx="353.959" cy="312.558" r="17.86" fill="#506427"/>
	</g>
</g>
<g>
	<g>
		<circle cx="353.959" cy="199.442" r="17.86" fill="#506427"/>
	</g>
</g>
</svg>