<?xml version="1.0" encoding="iso-8859-1"?>
<!-- Uploaded to: SVG Repo, www.svgrepo.com, Generator: SVG Repo Mixer Tools -->
<svg fill="#000000" height="800px" width="800px" version="1.1" id="Layer_1" xmlns="http://www.w3.org/2000/svg" xmlns:xlink="http://www.w3.org/1999/xlink" 
	 viewBox="0 0 511.999 511.999" xml:space="preserve">
<g>
	<g>
		<path fill="#506427" d="M497.625,373.592c-14.517-14.24-31.608-24.891-50.203-31.559c3.742-5.688,7.208-11.555,10.383-17.606
			c17.52-33.38,26.403-72.335,26.403-115.782V88.123H464.07c-1.56,0-3.112,0.035-4.671,0.058
			c-8.514-19.381-28.364-37.46-57.285-51.535C363.59,17.897,311.698,7.572,256.001,7.572S148.41,17.897,109.885,36.647
			C80.964,50.721,61.114,68.801,52.6,88.182c-1.556-0.024-3.109-0.058-4.671-0.058H27.791v120.52
			c0,48.944,11.977,94.506,34.948,134.048c-17.884,6.705-34.326,17.131-48.364,30.901L0,387.695l74.04,75.474
			c26.956,27.479,62.812,41.26,98.774,41.258c29.242-0.003,58.551-9.127,83.185-27.403c24.634,18.28,53.938,27.404,83.185,27.403
			c35.957-0.001,71.821-13.784,98.774-41.256l74.04-75.475L497.625,373.592z M443.933,129.099v79.544
			c0,50.343-13.612,92.277-40.533,125.294c-1.528-0.034-3.058-0.051-4.596-0.035c-19.607,0.223-38.52,4.477-55.8,12.351
			c-7.083-54.681-29.235-105.92-64.478-148.825C325.071,157.153,382.591,133.373,443.933,129.099z M250.912,168.064
			c-13.973-13.032-28.98-24.583-44.838-34.563c13.883-3.352,30.773-5.1,49.927-5.1c16.727,0,31.719,1.337,44.5,3.905
			C283.026,142.556,266.426,154.496,250.912,168.064z M127.51,72.863c33.145-16.132,78.778-25.016,128.491-25.016
			s95.346,8.884,128.491,25.016c12.876,6.267,22.404,12.977,28.857,19.206c-21.385,3.342-42.241,8.798-62.324,16.258
			c-3.219-1.955-6.658-3.777-10.32-5.444c-21.197-9.656-50.488-14.76-84.705-14.76s-63.508,5.104-84.705,14.76
			c-4.391,2-8.467,4.216-12.221,6.627c-19.491-7.839-39.82-13.599-60.725-17.146C104.807,86.053,114.429,79.229,127.51,72.863z
			 M171.959,464.034c-26.424-0.213-50.987-10.538-69.167-29.07l-44.399-45.259c15.732-10.121,34.044-15.535,53.186-15.535
			c0.385,0,0.772,0.001,1.157,0.007c26.229,0.299,50.701,10.758,68.904,29.449l44.327,45.185
			C210.021,458.875,191.379,464.248,171.959,464.034z M210.464,375.493c-25.726-26.398-60.268-41.169-97.269-41.591
			c-0.544-0.007-1.086-0.009-1.63-0.009c-2.254,0-4.499,0.055-6.734,0.16c-24.123-35.969-36.764-78.818-36.764-125.409v-79.472
			c61.368,4.72,118.421,30.973,162.404,75.114c45.252,45.416,71.389,104.598,74.437,167.875c-1.138,1.091-2.266,2.198-3.374,3.332
			l-45.535,46.417L210.464,375.493z M409.208,434.965c-18.179,18.531-42.743,28.854-69.168,29.067
			c-19.453,0.211-38.061-5.157-54.007-15.222l44.276-45.134l0.051-0.051c18.204-18.691,42.674-29.149,68.904-29.449
			c19.531-0.283,38.295,5.202,54.345,15.528L409.208,434.965z"/>
	</g>
</g>
</svg>