<?xml version="1.0" standalone="no"?>
<!DOCTYPE svg PUBLIC "-//W3C//DTD SVG 20010904//EN"
 "http://www.w3.org/TR/2001/REC-SVG-20010904/DTD/svg10.dtd">
<svg version="1.0" xmlns="http://www.w3.org/2000/svg"
 width="1011.000000pt" height="1243.000000pt" viewBox="0 0 1011.000000 1243.000000"
 preserveAspectRatio="xMidYMid meet">

<g transform="translate(0.000000,1243.000000) scale(0.100000,-0.100000)"
fill="#ffffff" stroke="none">
<path d="M4841 11958 c-78 -325 -194 -511 -565 -904 -83 -88 -164 -176 -181
-195 -16 -19 -62 -70 -101 -114 -422 -478 -687 -957 -778 -1407 -43 -214 -46
-519 -7 -738 48 -270 179 -597 334 -828 68 -102 259 -313 271 -301 4 4 -23 60
-59 125 -174 317 -265 664 -265 1016 0 347 75 656 227 938 96 179 288 431 577
756 263 297 432 537 541 770 24 52 46 94 49 94 3 0 32 -55 65 -122 101 -207
229 -387 492 -694 375 -437 433 -509 523 -642 242 -358 362 -805 326 -1216
-29 -329 -89 -543 -236 -843 -41 -83 -74 -155 -74 -159 0 -14 88 77 153 156
194 240 364 597 427 901 67 323 45 689 -61 1019 -163 504 -428 890 -1089 1584
-293 308 -416 512 -489 815 -16 63 -33 117 -38 118 -5 2 -24 -56 -42 -129z"/>
<path d="M3172 11603 c-99 -48 -118 -180 -38 -251 66 -58 154 -54 216 8 60 60
62 141 3 203 -56 58 -117 72 -181 40z"/>
<path d="M6475 11601 c-94 -42 -118 -168 -47 -243 76 -81 222 -49 261 57 25
70 -11 153 -82 185 -53 24 -81 25 -132 1z"/>
<path d="M2773 10736 c-63 -20 -110 -53 -148 -103 -113 -148 -73 -350 87 -439
48 -26 62 -29 143 -29 81 0 95 3 144 30 71 39 124 101 146 171 58 184 -72 368
-267 380 -37 2 -80 -2 -105 -10z"/>
<path d="M6838 10737 c-181 -51 -270 -255 -182 -417 31 -58 74 -99 137 -132
35 -19 58 -23 132 -23 102 0 147 17 210 80 62 62 80 109 80 205 0 76 -3 91
-30 139 -32 58 -91 112 -148 136 -53 22 -144 27 -199 12z"/>
<path d="M4921 10358 c-1 -57 34 -225 63 -302 41 -108 88 -186 338 -561 314
-471 405 -638 470 -860 55 -189 61 -387 19 -585 -11 -52 -21 -102 -21 -110 1
-52 68 122 102 260 17 74 17 373 -1 465 -32 167 -87 327 -162 478 -62 123
-189 320 -271 423 -40 50 -111 138 -157 195 -47 57 -120 158 -164 224 -69 103
-102 166 -199 375 l-17 35 0 -37z"/>
<path d="M4800 10283 c-86 -189 -167 -319 -314 -501 -298 -370 -412 -546 -506
-778 -47 -115 -96 -301 -111 -427 -17 -135 -5 -330 26 -445 50 -185 54 -177
52 113 -1 238 0 267 20 347 69 270 158 437 458 858 302 424 359 535 409 792
28 144 18 156 -34 41z"/>
<path d="M8975 9039 c-205 -206 -400 -352 -621 -463 -134 -67 -191 -88 -569
-215 -334 -113 -417 -145 -535 -207 -126 -67 -230 -146 -367 -278 -99 -95
-129 -131 -155 -184 -33 -66 -33 -68 -31 -195 2 -131 7 -167 24 -167 5 0 48
37 96 83 226 212 309 262 678 405 293 114 399 159 560 239 181 90 327 180 482
295 24 17 46 29 49 25 4 -3 1 -39 -5 -79 -79 -505 -90 -629 -101 -1108 -16
-664 -36 -850 -116 -1074 -41 -114 -149 -320 -226 -428 -7 -9 -10 -20 -6 -23
10 -10 369 94 395 115 60 47 204 261 273 405 92 194 129 342 151 598 15 169 6
339 -37 707 -43 369 -46 419 -41 635 9 353 63 608 196 917 41 98 47 118 33
118 -4 0 -61 -54 -127 -121z"/>
<path d="M1040 9044 c0 -3 12 -31 26 -62 68 -148 130 -331 169 -497 68 -285
72 -513 20 -1030 -55 -541 -58 -580 -52 -740 9 -237 62 -451 162 -663 69 -144
223 -371 278 -407 19 -12 356 -115 380 -115 16 0 5 24 -52 113 -121 191 -195
368 -230 550 -23 119 -46 407 -61 762 -5 138 -15 367 -20 510 -12 283 -29 448
-60 595 -38 174 -43 200 -37 206 3 3 47 -26 99 -64 232 -171 490 -308 838
-442 474 -183 650 -282 849 -478 51 -51 96 -90 99 -87 4 3 12 58 19 122 12
117 7 188 -18 236 -55 102 -250 302 -380 390 -137 91 -297 157 -754 312 -405
137 -582 217 -760 343 -88 62 -151 117 -347 303 -145 139 -168 158 -168 143z"/>
<path d="M5648 8310 c-102 -222 -174 -397 -197 -480 -36 -129 -23 -131 28 -5
26 66 54 136 63 155 133 286 180 404 176 443 -3 27 -13 10 -70 -113z"/>
<path d="M4720 8355 c-5 -14 -10 -41 -10 -60 0 -39 -20 -50 -75 -39 -21 4 -35
2 -35 -4 0 -11 33 -22 67 -22 20 0 22 -4 18 -47 -10 -114 -14 -293 -6 -293 4
0 16 67 26 150 10 82 22 155 26 162 5 7 29 11 63 9 34 -1 56 2 56 8 0 6 -8 11
-17 11 -10 1 -33 14 -51 29 -30 26 -33 34 -30 71 4 50 -16 66 -32 25z"/>
<path d="M441 8252 c-50 -19 -121 -83 -146 -132 -23 -45 -31 -139 -15 -195 16
-58 77 -127 138 -156 94 -46 231 -22 310 53 37 37 72 122 72 177 0 187 -187
318 -359 253z"/>
<path d="M9540 8261 c-121 -37 -189 -130 -190 -256 0 -115 46 -193 140 -234
67 -29 113 -35 172 -21 134 31 207 120 208 251 0 174 -170 308 -330 260z"/>
<path d="M4163 7885 c6 -124 31 -348 44 -390 5 -19 6 -18 15 4 13 37 -39 492
-59 510 -3 4 -3 -52 0 -124z"/>
<path d="M8129 7735 c-85 -76 -294 -199 -655 -385 -177 -92 -229 -121 -333
-188 -274 -177 -484 -456 -555 -738 -17 -67 -21 -124 -8 -108 5 5 17 32 27 59
54 150 141 290 253 404 137 141 281 236 544 364 261 126 427 228 530 325 21
20 41 33 44 29 4 -4 -12 -53 -34 -109 -77 -191 -82 -228 -117 -768 -29 -448
-40 -569 -61 -684 -19 -98 -79 -254 -141 -361 -25 -44 -48 -84 -51 -90 -15
-29 68 61 122 133 124 164 201 358 241 604 15 95 27 302 45 758 10 275 25 379
76 513 32 85 86 195 121 249 14 21 23 41 21 44 -3 3 -34 -20 -69 -51z"/>
<path d="M1878 7613 c4 -10 28 -58 54 -108 91 -178 112 -286 128 -640 6 -137
15 -340 20 -450 21 -428 85 -667 239 -893 49 -72 137 -169 145 -161 4 3 -12
36 -34 72 -81 134 -144 296 -169 432 -15 83 -29 322 -36 620 -11 409 -47 622
-135 795 -22 43 -25 60 -11 60 5 0 143 -80 308 -178 164 -98 354 -209 423
-246 166 -90 262 -160 370 -272 99 -102 180 -220 234 -337 19 -42 38 -77 42
-77 22 0 -52 227 -106 325 -109 198 -245 343 -442 474 -42 28 -208 116 -368
196 -367 182 -440 226 -647 388 -22 18 -23 18 -15 0z"/>
<path d="M5430 7323 c0 -17 9 -60 20 -95 28 -90 26 -108 -19 -160 -44 -49
-122 -95 -220 -128 -94 -31 -142 -39 -291 -50 -105 -7 -157 -16 -234 -40 -197
-63 -334 -139 -453 -254 l-83 -79 0 32 c0 17 13 114 30 214 33 201 51 397 40
437 l-7 25 -7 -30 c-29 -135 -77 -493 -83 -620 -7 -163 -9 -170 -133 -515 -51
-141 -132 -454 -128 -495 2 -20 14 14 36 102 33 133 70 246 162 498 28 77 56
156 62 175 38 129 223 282 448 373 277 111 539 110 761 -4 188 -97 335 -284
412 -524 14 -44 28 -91 31 -105 3 -14 3 2 1 35 -5 69 -45 215 -81 294 -39 86
-129 212 -199 280 -36 35 -65 66 -65 70 0 16 69 323 74 328 3 3 20 -8 39 -24
37 -33 62 -43 162 -67 261 -64 476 -287 581 -603 46 -139 56 -126 19 25 -58
230 -178 424 -338 546 -97 73 -162 103 -281 133 -134 33 -177 71 -232 202 -21
51 -23 53 -24 24z"/>
<path d="M7319 6688 c-71 -41 -102 -145 -65 -216 9 -17 37 -43 61 -58 39 -22
54 -26 101 -22 87 7 144 61 151 145 4 40 0 55 -25 94 -50 77 -146 102 -223 57z"/>
<path d="M2585 6536 c-48 -21 -93 -79 -100 -130 -9 -60 24 -132 75 -160 107
-62 250 14 250 132 0 118 -122 203 -225 158z"/>
<path d="M5990 6234 c-11 -12 -10 -18 3 -32 16 -15 18 -15 34 0 13 14 14 20 3
32 -7 9 -16 16 -20 16 -4 0 -13 -7 -20 -16z"/>
<path d="M6313 5845 c-6 -16 -21 -59 -33 -95 -52 -154 -162 -317 -290 -429
-99 -88 -151 -123 -268 -181 -106 -53 -152 -68 -152 -52 0 6 22 47 49 91 85
140 162 352 160 440 0 35 -1 34 -14 -14 -43 -158 -151 -365 -255 -486 -30 -35
-86 -92 -125 -127 -103 -91 -335 -263 -438 -323 -110 -65 -123 -83 -277 -394
-120 -244 -190 -403 -190 -434 0 -30 18 -26 32 7 94 219 270 566 324 639 14
18 55 50 92 72 92 54 232 154 381 274 95 76 136 103 178 115 29 8 56 12 59 9
4 -3 -20 -54 -51 -113 -60 -112 -95 -208 -94 -259 0 -27 2 -26 20 19 11 27 47
97 79 156 33 58 74 135 92 170 32 62 35 64 138 117 300 155 495 391 575 696
26 98 31 163 8 102z"/>
<path d="M1725 5344 c-127 -32 -205 -105 -205 -192 0 -37 6 -50 34 -78 45 -45
77 -45 123 1 39 39 40 63 1 116 -19 25 -20 32 -8 53 41 77 274 84 389 12 22
-14 46 -26 52 -26 26 0 -28 43 -98 77 -66 33 -82 36 -171 39 -53 2 -106 1
-117 -2z"/>
<path d="M7807 5340 c-46 -12 -111 -44 -155 -77 -49 -37 -32 -39 35 -4 138 72
334 62 386 -20 7 -10 2 -26 -17 -53 -39 -58 -33 -90 24 -129 35 -24 65 -21
101 11 23 21 32 39 36 73 9 75 -28 125 -127 175 -46 23 -69 28 -150 30 -52 2
-112 -1 -133 -6z"/>
<path d="M2187 4919 c-71 -17 -139 -60 -233 -149 -139 -131 -209 -165 -391
-191 -46 -6 -83 -15 -83 -20 0 -4 63 -40 141 -80 198 -100 290 -178 481 -404
183 -218 327 -325 553 -413 167 -65 231 -76 435 -76 156 0 200 4 280 23 161
38 353 112 405 156 24 19 36 22 -145 -27 -103 -28 -133 -32 -290 -35 -151 -4
-188 -2 -270 16 -148 33 -225 60 -357 127 -172 87 -264 156 -458 344 -186 182
-264 242 -379 296 -42 19 -76 38 -76 43 0 5 21 16 48 26 26 9 102 46 168 80
137 71 205 95 276 95 32 0 48 4 48 13 -1 26 -86 182 -100 184 -8 0 -32 -3 -53
-8z"/>
<path d="M7476 4921 c-11 -18 -76 -173 -76 -182 0 -5 19 -9 43 -9 51 0 128
-20 182 -47 22 -11 81 -40 130 -65 50 -25 111 -53 138 -63 26 -10 47 -21 47
-26 0 -4 -38 -26 -84 -47 -116 -55 -177 -102 -361 -282 -88 -86 -187 -176
-220 -201 -133 -100 -308 -194 -445 -238 -251 -82 -543 -83 -800 -2 -75 24
-84 25 -74 10 10 -17 157 -83 259 -117 163 -54 252 -67 445 -66 193 0 266 14
425 76 232 92 364 192 570 433 122 144 235 253 313 302 31 21 110 63 175 95
64 32 117 62 117 66 0 4 -51 16 -112 26 -159 24 -227 59 -357 181 -108 101
-142 123 -230 149 -62 18 -78 20 -85 7z"/>
<path d="M7001 4839 c-114 -22 -218 -92 -396 -265 -117 -114 -179 -164 -260
-208 -65 -37 -68 -40 -20 -32 97 17 237 111 425 285 92 86 168 140 263 188 84
43 81 50 -12 32z"/>
<path d="M2550 4807 c0 -3 24 -17 54 -30 81 -37 167 -99 275 -197 216 -196
345 -280 429 -280 24 0 22 3 -23 28 -91 50 -139 88 -265 211 -137 133 -237
207 -327 241 -57 22 -143 38 -143 27z"/>
<path d="M3732 4577 c-48 -150 -66 -235 -43 -211 21 21 112 357 100 369 -3 2
-28 -69 -57 -158z"/>
<path d="M5400 4374 c0 -34 30 -124 42 -124 17 0 3 75 -21 113 -17 27 -21 29
-21 11z"/>
<path d="M4640 3855 c-27 -32 -14 -70 80 -225 51 -85 109 -177 128 -205 l34
-50 -6 42 c-3 24 -21 73 -40 110 -65 131 -168 328 -175 336 -5 4 -14 1 -21 -8z"/>
<path d="M5127 3803 c-18 -38 -68 -134 -110 -215 -42 -81 -77 -160 -77 -175 0
-24 2 -25 14 -13 28 30 246 396 246 413 0 23 -18 57 -30 57 -5 0 -25 -30 -43
-67z"/>
<path d="M5296 3645 c-15 -76 -58 -172 -114 -252 -31 -45 -87 -123 -123 -175
-84 -118 -107 -164 -125 -247 -27 -131 -16 -133 48 -8 27 50 77 133 114 182
174 239 215 318 222 431 5 83 -11 132 -22 69z"/>
<path d="M4500 3598 c0 -110 47 -211 188 -408 61 -85 128 -188 149 -227 53
-101 66 -95 42 19 -16 75 -65 165 -165 298 -100 135 -150 220 -174 298 -22 70
-40 80 -40 20z"/>
<path d="M4261 3449 c-29 -31 -36 -79 -22 -161 26 -157 73 -229 356 -548 149
-168 222 -270 254 -356 25 -65 25 -73 6 -94 -12 -13 -128 -265 -216 -467 l-18
-42 34 -7 c59 -11 84 2 106 54 11 25 26 50 32 54 18 11 205 10 227 -2 10 -5
26 -30 35 -55 15 -38 23 -46 51 -51 37 -7 84 1 84 15 0 5 -23 60 -51 122 -28
63 -75 170 -105 239 -31 69 -64 132 -75 140 -20 16 -20 16 7 89 40 108 107
202 245 347 252 262 339 395 365 555 17 102 8 161 -28 180 -24 13 -37 -1 -38
-41 -1 -32 -39 -126 -82 -197 -18 -31 -102 -129 -187 -217 -176 -185 -234
-257 -288 -362 -21 -40 -41 -74 -44 -74 -3 0 -22 33 -43 74 -51 104 -106 174
-277 351 -81 85 -162 175 -179 200 -43 63 -82 150 -95 214 -12 62 -25 71 -54
40z m695 -1382 c17 -42 29 -78 26 -81 -8 -9 -140 -7 -145 2 -5 7 39 123 57
150 14 23 29 7 62 -71z"/>
<path d="M3939 3011 c-60 -61 -23 -156 61 -156 35 0 47 6 71 33 43 48 35 103
-21 135 -42 25 -77 21 -111 -12z"/>
<path d="M5783 3030 c-51 -21 -67 -116 -25 -153 48 -43 132 -23 151 36 27 82
-45 149 -126 117z"/>
<path d="M3482 3018 c-7 -7 -12 -27 -12 -45 0 -39 32 -60 74 -49 31 8 44 46
27 82 -8 18 -18 24 -44 24 -18 0 -38 -5 -45 -12z"/>
<path d="M6262 3018 c-17 -17 -15 -64 4 -82 35 -35 94 -12 94 37 0 41 -15 57
-55 57 -17 0 -36 -5 -43 -12z"/>
<path d="M3598 2291 c-70 -23 -118 -85 -118 -153 0 -75 46 -114 172 -148 101
-27 128 -42 128 -75 0 -54 -95 -70 -202 -34 -33 11 -66 18 -73 15 -19 -7 -29
-64 -15 -82 20 -23 116 -46 196 -46 93 1 154 27 191 83 22 33 25 47 21 91 -5
43 -11 57 -38 79 -17 15 -57 34 -88 43 -31 9 -80 23 -109 32 -35 10 -54 21
-58 34 -11 35 4 59 47 72 39 12 50 10 174 -19 15 -3 23 2 32 22 18 40 15 53
-20 71 -37 19 -196 29 -240 15z"/>
<path d="M4177 2286 c-47 -17 -71 -38 -91 -81 -20 -41 -20 -88 -2 -123 27 -52
46 -62 209 -107 43 -12 61 -22 69 -41 10 -21 8 -28 -9 -46 -32 -32 -100 -35
-184 -8 -77 25 -82 23 -96 -29 -12 -47 78 -84 201 -83 135 1 232 85 211 185
-13 61 -59 95 -165 122 -89 22 -119 35 -130 56 -33 60 76 99 175 64 22 -8 46
-15 52 -15 16 0 46 58 39 75 -14 38 -202 58 -279 31z"/>
<path d="M798 2285 c-3 -4 23 -72 59 -153 35 -81 82 -190 105 -242 23 -52 48
-101 57 -107 8 -7 31 -13 51 -13 50 0 65 14 99 95 16 39 63 147 104 242 41 94
72 174 69 177 -3 3 -28 6 -57 6 l-51 0 -69 -162 c-72 -171 -82 -191 -95 -183
-4 3 -40 81 -80 175 l-72 170 -57 0 c-32 0 -60 -2 -63 -5z"/>
<path d="M1656 2282 c-26 -42 -216 -489 -212 -499 6 -15 69 -18 95 -3 10 5 24
24 31 42 26 64 34 68 139 68 53 0 105 -3 116 -6 12 -3 28 -24 39 -52 11 -26
24 -50 30 -54 19 -13 96 -9 102 6 5 14 2 22 -150 361 l-63 140 -60 3 c-34 2
-64 -1 -67 -6z m108 -209 c36 -86 35 -93 -16 -94 -59 -2 -92 2 -99 9 -4 4 9
44 28 90 41 96 45 96 87 -5z"/>
<path d="M2187 2283 c-4 -3 -7 -118 -7 -254 0 -270 -3 -259 60 -259 60 0 60
-1 60 156 0 85 4 144 10 144 5 0 62 -64 126 -142 123 -151 151 -172 199 -150
l25 12 -2 247 -3 248 -55 0 -55 0 -5 -150 -5 -150 -125 153 -125 152 -46 0
c-25 0 -49 -3 -52 -7z"/>
<path d="M2900 2036 c0 -222 2 -255 16 -260 21 -8 332 -8 362 0 20 6 23 12 20
48 l-3 41 -132 3 c-159 3 -161 5 -144 114 0 4 54 9 119 10 l117 3 0 40 0 40
-110 3 c-122 3 -135 9 -135 66 0 53 6 55 145 58 l130 3 0 40 0 40 -192 3 -193
2 0 -254z"/>
<path d="M5580 2036 l0 -255 35 -7 c19 -3 46 -3 59 0 23 6 25 11 28 74 l3 67
55 0 55 0 45 -67 c41 -61 49 -68 87 -73 22 -4 50 -4 62 0 25 8 20 21 -41 101
-21 28 -38 55 -38 60 0 5 14 18 30 29 96 63 89 225 -11 292 -42 27 -46 28
-206 31 l-163 3 0 -255z m287 144 c22 -13 34 -29 38 -54 14 -72 -35 -114 -132
-115 -71 -1 -73 1 -73 93 0 46 3 86 7 89 15 16 128 7 160 -13z"/>
<path d="M6240 2037 c0 -281 -3 -267 63 -267 59 0 58 -5 55 266 l-3 249 -57 3
-58 3 0 -254z"/>
<path d="M6540 2276 c0 -11 106 -263 183 -437 14 -31 33 -59 42 -63 27 -10 80
-7 98 7 9 6 48 86 87 177 39 91 75 174 80 185 30 66 50 119 50 131 0 18 -93
19 -107 2 -6 -7 -36 -74 -68 -148 -31 -74 -64 -148 -72 -164 -15 -28 -16 -29
-29 -11 -8 10 -44 90 -80 177 l-67 158 -59 0 c-42 0 -58 -4 -58 -14z"/>
<path d="M7257 2283 c-4 -3 -7 -118 -7 -254 l0 -249 23 -5 c12 -3 101 -4 197
-3 l175 3 3 47 3 47 -138 3 -138 3 0 55 0 55 118 3 117 3 0 44 0 44 -117 3
-118 3 0 55 0 55 133 3 132 3 0 44 0 45 -188 0 c-104 0 -192 -3 -195 -7z"/>
<path d="M7870 2035 l0 -255 24 -6 c13 -3 37 -4 52 -2 27 3 29 6 32 53 4 93 6
95 66 95 l54 0 47 -70 c45 -64 51 -70 92 -76 24 -3 53 -3 64 2 17 8 15 14 -31
79 -27 39 -49 74 -50 78 0 4 16 22 35 39 47 41 68 91 62 150 -5 63 -40 113
-101 143 -46 23 -60 25 -198 25 l-148 0 0 -255z m274 151 c24 -10 37 -24 46
-50 23 -72 -36 -126 -138 -126 -47 0 -53 3 -62 26 -14 36 -12 138 2 152 16 16
111 15 152 -2z"/>
<path d="M8651 2208 c-21 -46 -71 -159 -111 -251 -81 -186 -81 -190 -5 -185
37 3 42 7 61 48 35 72 33 71 157 68 l112 -3 22 -45 c12 -25 27 -51 33 -57 15
-17 99 -17 106 0 5 14 -16 64 -139 337 l-75 165 -61 3 -61 3 -39 -83z m142
-136 c39 -92 40 -92 -48 -92 -41 0 -75 1 -75 3 0 2 12 32 26 68 15 35 30 75
36 88 7 21 11 22 22 10 7 -8 25 -42 39 -77z"/>
<path d="M3475 1650 c-186 -26 -303 -133 -313 -285 -10 -146 59 -238 221 -296
28 -10 120 -37 202 -59 223 -61 278 -104 278 -217 0 -104 -82 -173 -227 -193
-152 -22 -299 16 -439 113 -15 10 -21 9 -33 -8 -43 -58 -26 -88 80 -140 92
-45 170 -65 281 -72 203 -12 371 63 431 192 44 93 28 227 -35 292 -63 66 -118
90 -331 146 -254 67 -310 108 -310 227 0 131 111 205 305 203 93 -1 226 -34
270 -67 31 -24 45 -19 61 20 19 46 14 58 -34 83 -100 51 -283 78 -407 61z"/>
<path d="M4485 1638 c-3 -7 -4 -265 -3 -573 l3 -560 45 -3 c67 -5 70 4 70 195
l0 163 178 0 c103 1 209 6 253 14 144 26 247 94 302 200 31 58 32 66 32 176 0
106 -2 120 -29 177 -51 110 -151 180 -300 208 -103 20 -544 22 -551 3z m587
-117 c62 -20 120 -71 151 -132 23 -46 29 -71 30 -132 2 -100 -34 -176 -106
-224 -76 -51 -105 -56 -334 -60 l-213 -4 -1 248 c0 136 -1 264 -2 283 l-2 35
60 5 c91 8 375 -5 417 -19z"/>
<path d="M6153 1642 c-6 -4 -36 -61 -66 -127 -30 -66 -146 -317 -256 -558
-111 -241 -199 -443 -196 -448 9 -14 101 -11 113 4 5 6 37 72 71 146 34 74 67
138 74 143 6 4 151 8 320 8 l308 0 15 -27 c9 -16 41 -84 73 -153 l57 -125 57
-3 c44 -2 57 0 57 11 0 8 -56 135 -124 283 -67 148 -181 395 -251 549 -70 154
-132 286 -138 293 -10 13 -95 16 -114 4z m112 -249 c172 -382 205 -457 205
-469 0 -12 -48 -14 -266 -14 -249 0 -266 1 -262 18 14 50 253 572 263 572 7 0
34 -48 60 -107z"/>
<path d="M826 1282 c-13 -3 -16 -12 -14 -35 l3 -32 1035 -3 c569 -1 1045 0
1058 3 18 5 23 11 20 33 l-3 27 -1041 5 c-572 3 -1048 3 -1058 2z"/>
<path d="M6923 1264 c-3 -9 -2 -24 4 -33 9 -15 105 -16 1059 -16 l1049 0 3 33
3 32 -1056 0 c-968 0 -1056 -1 -1062 -16z"/>
</g>
</svg>
