<?xml version="1.0" standalone="no"?>
<!DOCTYPE svg PUBLIC "-//W3C//DTD SVG 20010904//EN"
 "http://www.w3.org/TR/2001/REC-SVG-20010904/DTD/svg10.dtd">
<svg version="1.0" xmlns="http://www.w3.org/2000/svg"
 width="1011.000000pt" height="1008.000000pt" viewBox="0 0 1011.000000 1008.000000"
 preserveAspectRatio="xMidYMid meet">

<g transform="translate(0.000000,1008.000000) scale(0.100000,-0.100000)"
fill="#000000" stroke="none">
<path d="M4841 9608 c-78 -325 -194 -511 -565 -904 -83 -88 -164 -176 -181
-195 -16 -19 -62 -70 -101 -114 -422 -478 -687 -957 -778 -1407 -43 -214 -46
-519 -7 -738 48 -270 179 -597 334 -828 68 -102 259 -313 271 -301 4 4 -23 60
-59 125 -174 317 -265 664 -265 1016 0 347 75 656 227 938 96 179 288 431 577
756 263 297 432 537 541 770 24 52 46 94 49 94 3 0 32 -55 65 -122 101 -207
229 -387 492 -694 375 -437 433 -509 523 -642 242 -358 362 -805 326 -1216
-29 -329 -89 -543 -236 -843 -41 -83 -74 -155 -74 -159 0 -14 88 77 153 156
194 240 364 597 427 901 67 323 45 689 -61 1019 -163 504 -428 890 -1089 1584
-293 308 -416 512 -489 815 -16 63 -33 117 -38 118 -5 2 -24 -56 -42 -129z"/>
<path d="M3172 9253 c-99 -48 -118 -180 -38 -251 66 -58 154 -54 216 8 60 60
62 141 3 203 -56 58 -117 72 -181 40z"/>
<path d="M6475 9251 c-94 -42 -118 -168 -47 -243 76 -81 222 -49 261 57 25 70
-11 153 -82 185 -53 24 -81 25 -132 1z"/>
<path d="M2773 8386 c-63 -20 -110 -53 -148 -103 -113 -148 -73 -350 87 -439
48 -26 62 -29 143 -29 81 0 95 3 144 30 71 39 124 101 146 171 58 184 -72 368
-267 380 -37 2 -80 -2 -105 -10z"/>
<path d="M6838 8387 c-181 -51 -270 -255 -182 -417 31 -58 74 -99 137 -132 35
-19 58 -23 132 -23 102 0 147 17 210 80 62 62 80 109 80 205 0 76 -3 91 -30
139 -32 58 -91 112 -148 136 -53 22 -144 27 -199 12z"/>
<path d="M4921 8008 c-1 -57 34 -225 63 -302 41 -108 88 -186 338 -561 314
-471 405 -638 470 -860 55 -189 61 -387 19 -585 -11 -52 -21 -102 -21 -110 1
-52 68 122 102 260 17 74 17 373 -1 465 -32 167 -87 327 -162 478 -62 123
-189 320 -271 423 -40 50 -111 138 -157 195 -47 57 -120 158 -164 224 -69 103
-102 166 -199 375 l-17 35 0 -37z"/>
<path d="M4800 7933 c-86 -189 -167 -319 -314 -501 -298 -370 -412 -546 -506
-778 -47 -115 -96 -301 -111 -427 -17 -135 -5 -330 26 -445 50 -185 54 -177
52 113 -1 238 0 267 20 347 69 270 158 437 458 858 302 424 359 535 409 792
28 144 18 156 -34 41z"/>
<path d="M8975 6689 c-205 -206 -400 -352 -621 -463 -134 -67 -191 -88 -569
-215 -334 -113 -417 -145 -535 -207 -126 -67 -230 -146 -367 -278 -99 -95
-129 -131 -155 -184 -33 -66 -33 -68 -31 -195 2 -131 7 -167 24 -167 5 0 48
37 96 83 226 212 309 262 678 405 293 114 399 159 560 239 181 90 327 180 482
295 24 17 46 29 49 25 4 -3 1 -39 -5 -79 -79 -505 -90 -629 -101 -1108 -16
-664 -36 -850 -116 -1074 -41 -114 -149 -320 -226 -428 -7 -9 -10 -20 -6 -23
10 -10 369 94 395 115 60 47 204 261 273 405 92 194 129 342 151 598 15 169 6
339 -37 707 -43 369 -46 419 -41 635 9 353 63 608 196 917 41 98 47 118 33
118 -4 0 -61 -54 -127 -121z"/>
<path d="M1040 6694 c0 -3 12 -31 26 -62 68 -148 130 -331 169 -497 68 -285
72 -513 20 -1030 -55 -541 -58 -580 -52 -740 9 -237 62 -451 162 -663 69 -144
223 -371 278 -407 19 -12 356 -115 380 -115 16 0 5 24 -52 113 -121 191 -195
368 -230 550 -23 119 -46 407 -61 762 -5 138 -15 367 -20 510 -12 283 -29 448
-60 595 -38 174 -43 200 -37 206 3 3 47 -26 99 -64 232 -171 490 -308 838
-442 474 -183 650 -282 849 -478 51 -51 96 -90 99 -87 4 3 12 58 19 122 12
117 7 188 -18 236 -55 102 -250 302 -380 390 -137 91 -297 157 -754 312 -405
137 -582 217 -760 343 -88 62 -151 117 -347 303 -145 139 -168 158 -168 143z"/>
<path d="M5648 5960 c-102 -222 -174 -397 -197 -480 -36 -129 -23 -131 28 -5
26 66 54 136 63 155 133 286 180 404 176 443 -3 27 -13 10 -70 -113z"/>
<path d="M4720 6005 c-5 -14 -10 -41 -10 -60 0 -39 -20 -50 -75 -39 -21 4 -35
2 -35 -4 0 -11 33 -22 67 -22 20 0 22 -4 18 -47 -10 -114 -14 -293 -6 -293 4
0 16 67 26 150 10 82 22 155 26 162 5 7 29 11 63 9 34 -1 56 2 56 8 0 6 -8 11
-17 11 -10 1 -33 14 -51 29 -30 26 -33 34 -30 71 4 50 -16 66 -32 25z"/>
<path d="M441 5902 c-50 -19 -121 -83 -146 -132 -23 -45 -31 -139 -15 -195 16
-58 77 -127 138 -156 94 -46 231 -22 310 53 37 37 72 122 72 177 0 187 -187
318 -359 253z"/>
<path d="M9540 5911 c-121 -37 -189 -130 -190 -256 0 -115 46 -193 140 -234
67 -29 113 -35 172 -21 134 31 207 120 208 251 0 174 -170 308 -330 260z"/>
<path d="M4163 5535 c6 -124 31 -348 44 -390 5 -19 6 -18 15 4 13 37 -39 492
-59 510 -3 4 -3 -52 0 -124z"/>
<path d="M8129 5385 c-85 -76 -294 -199 -655 -385 -177 -92 -229 -121 -333
-188 -274 -177 -484 -456 -555 -738 -17 -67 -21 -124 -8 -108 5 5 17 32 27 59
54 150 141 290 253 404 137 141 281 236 544 364 261 126 427 228 530 325 21
20 41 33 44 29 4 -4 -12 -53 -34 -109 -77 -191 -82 -228 -117 -768 -29 -448
-40 -569 -61 -684 -19 -98 -79 -254 -141 -361 -25 -44 -48 -84 -51 -90 -15
-29 68 61 122 133 124 164 201 358 241 604 15 95 27 302 45 758 10 275 25 379
76 513 32 85 86 195 121 249 14 21 23 41 21 44 -3 3 -34 -20 -69 -51z"/>
<path d="M1878 5263 c4 -10 28 -58 54 -108 91 -178 112 -286 128 -640 6 -137
15 -340 20 -450 21 -428 85 -667 239 -893 49 -72 137 -169 145 -161 4 3 -12
36 -34 72 -81 134 -144 296 -169 432 -15 83 -29 322 -36 620 -11 409 -47 622
-135 795 -22 43 -25 60 -11 60 5 0 143 -80 308 -178 164 -98 354 -209 423
-246 166 -90 262 -160 370 -272 99 -102 180 -220 234 -337 19 -42 38 -77 42
-77 22 0 -52 227 -106 325 -109 198 -245 343 -442 474 -42 28 -208 116 -368
196 -367 182 -440 226 -647 388 -22 18 -23 18 -15 0z"/>
<path d="M5430 4973 c0 -17 9 -60 20 -95 28 -90 26 -108 -19 -160 -44 -49
-122 -95 -220 -128 -94 -31 -142 -39 -291 -50 -105 -7 -157 -16 -234 -40 -197
-63 -334 -139 -453 -254 l-83 -79 0 32 c0 17 13 114 30 214 33 201 51 397 40
437 l-7 25 -7 -30 c-29 -135 -77 -493 -83 -620 -7 -163 -9 -170 -133 -515 -51
-141 -132 -454 -128 -495 2 -20 14 14 36 102 33 133 70 246 162 498 28 77 56
156 62 175 38 129 223 282 448 373 277 111 539 110 761 -4 188 -97 335 -284
412 -524 14 -44 28 -91 31 -105 3 -14 3 2 1 35 -5 69 -45 215 -81 294 -39 86
-129 212 -199 280 -36 35 -65 66 -65 70 0 16 69 323 74 328 3 3 20 -8 39 -24
37 -33 62 -43 162 -67 261 -64 476 -287 581 -603 46 -139 56 -126 19 25 -58
230 -178 424 -338 546 -97 73 -162 103 -281 133 -134 33 -177 71 -232 202 -21
51 -23 53 -24 24z"/>
<path d="M7319 4338 c-71 -41 -102 -145 -65 -216 9 -17 37 -43 61 -58 39 -22
54 -26 101 -22 87 7 144 61 151 145 4 40 0 55 -25 94 -50 77 -146 102 -223 57z"/>
<path d="M2585 4186 c-48 -21 -93 -79 -100 -130 -9 -60 24 -132 75 -160 107
-62 250 14 250 132 0 118 -122 203 -225 158z"/>
<path d="M5990 3884 c-11 -12 -10 -18 3 -32 16 -15 18 -15 34 0 13 14 14 20 3
32 -7 9 -16 16 -20 16 -4 0 -13 -7 -20 -16z"/>
<path d="M6313 3495 c-6 -16 -21 -59 -33 -95 -52 -154 -162 -317 -290 -429
-99 -88 -151 -123 -268 -181 -106 -53 -152 -68 -152 -52 0 6 22 47 49 91 85
140 162 352 160 440 0 35 -1 34 -14 -14 -43 -158 -151 -365 -255 -486 -30 -35
-86 -92 -125 -127 -103 -91 -335 -263 -438 -323 -110 -65 -123 -83 -277 -394
-120 -244 -190 -403 -190 -434 0 -30 18 -26 32 6 94 220 270 567 324 640 14
18 55 50 92 72 92 54 232 154 381 274 95 76 136 103 178 115 29 8 56 12 59 9
4 -3 -20 -54 -51 -113 -60 -112 -95 -208 -94 -259 0 -27 2 -26 20 19 11 27 47
97 79 156 33 58 74 135 92 170 32 62 35 64 138 117 300 155 495 391 575 696
26 98 31 163 8 102z"/>
<path d="M1725 2994 c-127 -32 -205 -105 -205 -192 0 -37 6 -50 34 -78 45 -45
77 -45 123 1 39 39 40 63 1 116 -19 25 -20 32 -8 53 41 77 274 84 389 12 22
-14 46 -26 52 -26 26 0 -28 43 -98 77 -66 33 -82 36 -171 39 -53 2 -106 1
-117 -2z"/>
<path d="M7807 2990 c-46 -12 -111 -44 -155 -77 -49 -37 -32 -39 35 -4 138 72
334 62 386 -20 7 -10 2 -26 -17 -53 -39 -58 -33 -90 24 -129 35 -24 65 -21
101 11 23 21 32 39 36 73 9 75 -28 125 -127 175 -46 23 -69 28 -150 30 -52 2
-112 -1 -133 -6z"/>
<path d="M2187 2569 c-71 -17 -139 -60 -233 -149 -139 -131 -209 -165 -391
-191 -46 -6 -83 -15 -83 -20 0 -4 63 -40 141 -80 198 -100 290 -178 481 -404
183 -218 327 -325 553 -413 167 -65 231 -76 435 -76 156 0 200 4 280 23 161
38 353 112 405 156 24 19 36 22 -145 -27 -103 -28 -133 -32 -290 -35 -151 -4
-188 -2 -270 16 -148 33 -225 60 -357 127 -172 87 -264 156 -458 344 -186 182
-264 242 -379 296 -42 19 -76 38 -76 43 0 5 21 16 48 26 26 9 102 46 168 80
137 71 205 95 276 95 32 0 48 4 48 13 -1 26 -86 182 -100 184 -8 0 -32 -3 -53
-8z"/>
<path d="M7476 2571 c-11 -18 -76 -173 -76 -182 0 -5 19 -9 43 -9 51 0 128
-20 182 -47 22 -11 81 -40 130 -65 50 -25 111 -53 138 -63 26 -10 47 -21 47
-26 0 -4 -38 -26 -84 -47 -116 -55 -177 -102 -361 -282 -88 -86 -187 -176
-220 -201 -133 -100 -308 -194 -445 -238 -251 -82 -543 -83 -800 -2 -75 24
-84 25 -74 10 10 -17 157 -83 259 -117 163 -54 252 -67 445 -66 193 0 266 14
425 76 232 92 364 192 570 433 122 144 235 253 313 302 31 21 110 63 175 95
64 32 117 62 117 66 0 4 -51 16 -112 26 -159 24 -227 59 -357 181 -108 101
-142 123 -230 149 -62 18 -78 20 -85 7z"/>
<path d="M7001 2489 c-114 -22 -218 -92 -396 -265 -117 -114 -179 -164 -260
-208 -65 -37 -68 -40 -20 -32 97 17 237 111 425 285 92 86 168 140 263 188 84
43 81 50 -12 32z"/>
<path d="M2550 2457 c0 -3 24 -17 54 -30 81 -37 167 -99 275 -197 216 -196
345 -280 429 -280 24 0 22 3 -23 28 -91 50 -139 88 -265 211 -137 133 -237
207 -327 241 -57 22 -143 38 -143 27z"/>
<path d="M3732 2227 c-48 -150 -66 -235 -43 -212 21 22 112 358 100 370 -3 2
-28 -69 -57 -158z"/>
<path d="M5400 2024 c0 -34 30 -124 42 -124 17 0 3 75 -21 113 -17 27 -21 29
-21 11z"/>
<path d="M4640 1505 c-27 -32 -14 -70 80 -225 51 -85 109 -177 128 -205 l34
-50 -6 42 c-3 24 -21 73 -40 110 -65 131 -168 328 -175 336 -5 4 -14 1 -21 -8z"/>
<path d="M5127 1453 c-18 -38 -68 -134 -110 -215 -42 -81 -77 -160 -77 -175 0
-24 2 -25 14 -13 28 30 246 396 246 413 0 23 -18 57 -30 57 -5 0 -25 -30 -43
-67z"/>
<path d="M5296 1295 c-15 -76 -58 -172 -114 -252 -31 -45 -87 -123 -123 -175
-84 -118 -107 -164 -125 -247 -27 -131 -16 -133 48 -8 27 50 77 133 114 182
174 239 215 318 222 431 5 83 -11 132 -22 69z"/>
<path d="M4500 1248 c0 -110 47 -211 188 -408 61 -85 128 -188 149 -227 53
-101 66 -95 42 19 -16 75 -65 165 -165 298 -100 135 -150 220 -174 298 -22 70
-40 80 -40 20z"/>
<path d="M4261 1099 c-29 -31 -36 -79 -22 -161 26 -157 73 -229 356 -548 144
-161 221 -268 251 -345 17 -44 17 -45 63 -45 l47 0 18 51 c31 84 107 189 237
325 252 262 339 395 365 555 17 102 8 161 -28 180 -24 13 -37 -1 -38 -41 -1
-32 -39 -126 -82 -197 -18 -31 -102 -129 -187 -217 -176 -185 -234 -257 -288
-362 -21 -40 -41 -74 -44 -74 -3 0 -22 33 -43 74 -51 104 -106 174 -277 351
-81 85 -162 175 -179 200 -43 63 -82 150 -95 214 -12 62 -25 71 -54 40z"/>
<path d="M3939 661 c-60 -61 -23 -156 61 -156 35 0 47 6 71 33 43 48 35 103
-21 135 -42 25 -77 21 -111 -12z"/>
<path d="M5783 680 c-51 -21 -67 -116 -25 -153 48 -43 132 -23 151 36 27 82
-45 149 -126 117z"/>
<path d="M3482 668 c-7 -7 -12 -27 -12 -45 0 -26 6 -36 24 -44 57 -26 103 20
77 77 -8 18 -18 24 -44 24 -18 0 -38 -5 -45 -12z"/>
<path d="M6262 668 c-17 -17 -15 -64 4 -82 18 -18 47 -20 75 -6 22 12 27 68 7
88 -16 16 -70 16 -86 0z"/>
</g>
</svg>
