<?xml version="1.0" encoding="iso-8859-1"?>
<!-- Uploaded to: SVG Repo, www.svgrepo.com, Generator: SVG Repo Mixer Tools -->
<svg fill="#000000" height="800px" width="800px" version="1.1" id="Layer_1" xmlns="http://www.w3.org/2000/svg" xmlns:xlink="http://www.w3.org/1999/xlink" 
	 viewBox="0 0 511.992 511.992" xml:space="preserve">
<g>
	<g>
		<path fill="#506427" d="M508.316,167.173c-12.885-19.985-33.365-34.261-53.427-37.239c-2.347-0.35-4.659-0.512-6.929-0.512
			c-3.49,0-6.972,0.401-10.377,1.178c-7.484-12.365-16.137-23.467-25.088-32.188c-15.454-15.036-35.746-23.313-57.148-23.313
			c-21.487,0-41.677,8.354-56.841,23.535c-30.711,30.703-31.411,80.009-2.603,110.302l-1.621,2.039
			c-11.563,19.277-10.547,48.666,2.509,73.139c4.053,7.586,11.904,12.297,21.376,12.297c0.026,0,0.034,0,0.051,0
			c8.849-0.324,16.862-5.777,20.429-13.884c3.379-7.663,7.424-12.442,10.035-14.959c25.173,32.887,27.179,56.798,10.812,118.349
			c-0.512,1.579-0.828,2.79-0.137,3.627c-8.166,3.635-16.751,5.564-24.866,5.564c-8.021,0-15.838-1.579-23.211-4.659
			c-2.85-1.203-5.871-1.801-8.977-1.801c-7.339,0-14.327,3.516-18.714,9.412c-6.391,8.636-6.059,20.446,0.777,28.698
			c4.702,5.7,9.523,10.24,14.729,13.884c12.271,8.576,26.59,13.252,41.66,13.56c5.333,13.935,14.66,25.865,27.059,34.56
			c5.197,3.635,11.11,6.596,18.074,9.088c2.526,0.896,5.163,1.348,7.817,1.348c7.834,0,15.104-3.9,19.422-10.436
			c5.922-8.96,4.975-20.727-2.313-28.621c-11.861-12.851-17.553-30.302-16.102-46.677l5.504-7.014
			c65.698-83.123,70.989-155.648,63.01-199.689c3.123-2.449,10.189-4.036,17.997-4.036c1.749,0,3.524,0.077,7.484,0.35
			c5.513,0,10.871-1.971,15.087-5.547c1.903-1.604,3.516-3.499,4.813-5.641C513.231,184.325,513.103,174.622,508.316,167.173z
			 M317.314,267.849c-5.965-13.414-7.177-28.211-3.174-38.963c6.639,6.878,12.621,13.175,17.997,19.098
			C326.513,253.137,321.299,260.135,317.314,267.849z M382.517,467.793c-12.996-9.088-20.727-23.552-21.197-39.646l-0.085-3.089
			l-2.935,0.964c-5.222,1.724-10.641,2.603-16.085,2.603c-10.24,0-20.079-3.098-28.425-8.951c-1.041-0.725-2.039-1.502-3.038-2.347
			c7.697,2.227,15.65,3.354,23.765,3.354c11.972,0,23.979-2.534,34.953-7.364c-1.348,20.284,4.446,40.277,16.29,56.525
			C384.599,469.184,383.541,468.51,382.517,467.793z M386.963,381.649c22.434-91.921-0.384-115.285-70.349-186.888
			c-21.265-21.76-21.274-56.772-0.026-78.046c10.359-10.334,24.141-16.034,38.81-16.034c14.677,0,28.612,5.709,39.236,16.06
			C433.154,154.245,479.644,256.935,386.963,381.649z M481.427,177.148c-5.862,0-14.285,0.614-22.451,3.439
			c-2.449-8.764-5.461-17.314-8.96-25.498c11.639,1.229,24.875,9.822,34.116,22.101C483.228,177.157,482.34,177.148,481.427,177.148
			z"/>
	</g>
</g>
<g>
	<g>
		<path fill="#506427" d="M216.092,303.057l1.604-2.039c11.563-19.277,10.547-48.666-2.509-73.139c-4.053-7.586-11.904-12.297-21.376-12.297
			c-0.026,0-0.034,0-0.051,0c-8.849,0.324-16.862,5.777-20.429,13.884c-3.379,7.663-7.424,12.442-10.035,14.959
			c-25.173-32.887-27.179-56.798-10.812-118.349c0.512-1.579,0.828-2.79,0.137-3.627c8.166-3.635,16.751-5.564,24.866-5.564
			c8.021,0,15.838,1.579,23.211,4.659c2.85,1.203,5.871,1.801,8.977,1.801c7.339,0,14.327-3.516,18.714-9.412
			c6.391-8.636,6.059-20.446-0.777-28.698c-4.702-5.7-9.523-10.24-14.729-13.884c-12.271-8.576-26.59-13.252-41.66-13.56
			c-5.333-13.935-14.66-25.865-27.059-34.56c-5.197-3.635-11.11-6.596-18.074-9.088c-2.534-0.896-5.171-1.348-7.817-1.348
			c-7.834,0-15.104,3.9-19.422,10.436c-5.922,8.96-4.975,20.727,2.313,28.621c11.861,12.851,17.553,30.302,16.102,46.677
			l-5.504,7.014c-65.707,83.123-70.989,155.648-63.019,199.689c-3.123,2.449-10.189,4.036-17.997,4.036
			c-1.749,0-3.524-0.077-7.484-0.35c-5.513,0-10.871,1.971-15.087,5.547c-1.903,1.596-3.516,3.499-4.813,5.641
			c-4.599,7.561-4.471,17.263,0.316,24.713c12.885,19.985,33.365,34.261,53.427,37.239c2.347,0.35,4.659,0.512,6.929,0.512
			c3.49,0,6.972-0.401,10.377-1.178c7.484,12.365,16.137,23.467,25.088,32.188c15.454,15.036,35.746,23.313,57.148,23.313
			c21.487,0,41.677-8.354,56.841-23.535C244.2,382.656,244.9,333.351,216.092,303.057z M27.863,334.81
			c0.896,0.026,1.783,0.034,2.697,0.034c5.862,0,14.285-0.614,22.451-3.439c2.449,8.764,5.461,17.314,8.96,25.498
			C50.332,355.682,37.096,347.081,27.863,334.81z M194.673,244.143c5.965,13.414,7.177,28.211,3.174,38.963
			c-6.639-6.878-12.621-13.175-17.997-19.098C185.474,258.855,190.688,251.857,194.673,244.143z M129.47,44.199
			c12.996,9.088,20.727,23.552,21.197,39.646l0.085,3.089l2.935-0.964c5.222-1.724,10.641-2.603,16.085-2.603
			c10.24,0,20.079,3.098,28.424,8.951c1.041,0.725,2.039,1.502,3.038,2.347c-7.697-2.227-15.65-3.354-23.765-3.354
			c-11.972,0-23.979,2.534-34.953,7.364c1.348-20.284-4.446-40.277-16.29-56.525C127.388,42.808,128.446,43.482,129.47,44.199z
			 M195.398,395.286c-10.359,10.334-24.141,16.034-38.81,16.034c-14.677,0-28.612-5.709-39.236-16.06
			c-38.511-37.513-85.001-140.203,7.671-264.909c-22.434,91.921,0.384,115.285,70.349,186.889
			C216.638,339,216.646,374.012,195.398,395.286z"/>
	</g>
</g>
</svg>